<svg width="852" height="200" viewBox="0 0 852 200" fill="none" xmlns="http://www.w3.org/2000/svg">
<circle cx="100" cy="100" r="100" fill="#1379AA"/>
<path fill-rule="evenodd" clip-rule="evenodd" d="M138.579 135.849H63.3094V135.83C50.3498 135.32 40 124.653 40 111.568C40 99.097 49.4026 88.8217 61.5055 87.4447C63.1489 68.3117 79.2003 53.2949 98.759 53.2949C114.589 53.2949 128.121 63.1312 133.577 77.0251C135.203 76.7485 136.874 76.6045 138.579 76.6045C154.939 76.6045 168.201 89.8668 168.201 106.227C168.201 122.424 155.201 135.586 139.065 135.845V135.849H138.579Z" fill="white"/>
<path d="M116.727 102.923C116.727 82.314 124.982 69.8053 143.921 69.8053C160.549 69.8053 175 79.6006 175 102.923C175 126.245 169.658 140.705 143.921 140.705C118.184 140.705 116.727 123.531 116.727 102.923Z" fill="#1379AA"/>
<rect x="125.468" y="78.5459" width="36.9065" height="57.3022" rx="18.4532" fill="white"/>
<circle cx="143.921" cy="93.1145" r="7.76978" fill="#1379AA"/>
<path d="M271.504 62.5909H287.158V114.822C287.158 119.651 286.073 123.845 283.903 127.405C281.757 130.965 278.77 133.708 274.942 135.635C271.113 137.561 266.663 138.524 261.591 138.524C257.08 138.524 252.984 137.732 249.301 136.147C245.644 134.537 242.742 132.099 240.596 128.831C238.45 125.539 237.39 121.406 237.414 116.432H253.179C253.227 118.407 253.63 120.102 254.386 121.516C255.166 122.906 256.227 123.979 257.568 124.735C258.933 125.466 260.543 125.832 262.396 125.832C264.347 125.832 265.993 125.417 267.334 124.588C268.699 123.735 269.736 122.491 270.443 120.858C271.15 119.224 271.504 117.212 271.504 114.822V62.5909ZM299.96 137.5V81.3182H315.542V137.5H299.96ZM307.788 74.076C305.471 74.076 303.484 73.3079 301.826 71.7717C300.192 70.2111 299.375 68.3456 299.375 66.1754C299.375 64.0296 300.192 62.1886 301.826 60.6523C303.484 59.0917 305.471 58.3114 307.788 58.3114C310.104 58.3114 312.079 59.0917 313.713 60.6523C315.371 62.1886 316.2 64.0296 316.2 66.1754C316.2 68.3456 315.371 70.2111 313.713 71.7717C312.079 73.3079 310.104 74.076 307.788 74.076ZM353.408 138.597C347.726 138.597 342.813 137.39 338.668 134.976C334.547 132.538 331.364 129.148 329.121 124.808C326.878 120.443 325.756 115.383 325.756 109.629C325.756 103.825 326.878 98.7531 329.121 94.4126C331.364 90.0478 334.547 86.6584 338.668 84.2443C342.813 81.8059 347.726 80.5866 353.408 80.5866C359.09 80.5866 363.991 81.8059 368.112 84.2443C372.257 86.6584 375.451 90.0478 377.695 94.4126C379.938 98.7531 381.06 103.825 381.06 109.629C381.06 115.383 379.938 120.443 377.695 124.808C375.451 129.148 372.257 132.538 368.112 134.976C363.991 137.39 359.09 138.597 353.408 138.597ZM353.481 126.527C356.066 126.527 358.224 125.795 359.955 124.332C361.686 122.845 362.991 120.821 363.869 118.261C364.771 115.7 365.222 112.786 365.222 109.519C365.222 106.251 364.771 103.337 363.869 100.777C362.991 98.2166 361.686 96.1927 359.955 94.7053C358.224 93.2178 356.066 92.4741 353.481 92.4741C350.872 92.4741 348.677 93.2178 346.897 94.7053C345.142 96.1927 343.813 98.2166 342.91 100.777C342.033 103.337 341.594 106.251 341.594 109.519C341.594 112.786 342.033 115.7 342.91 118.261C343.813 120.821 345.142 122.845 346.897 124.332C348.677 125.795 350.872 126.527 353.481 126.527ZM457.578 88.8164H441.558C441.265 86.7437 440.668 84.9027 439.766 83.2933C438.863 81.6596 437.705 80.2696 436.291 79.1236C434.876 77.9775 433.243 77.0997 431.389 76.4901C429.561 75.8804 427.573 75.5756 425.427 75.5756C421.55 75.5756 418.173 76.5388 415.296 78.4652C412.418 80.3672 410.187 83.147 408.602 86.8047C407.017 90.438 406.225 94.8516 406.225 100.045C406.225 105.386 407.017 109.872 408.602 113.506C410.212 117.139 412.455 119.882 415.332 121.735C418.21 123.589 421.538 124.515 425.318 124.515C427.439 124.515 429.402 124.235 431.207 123.674C433.035 123.113 434.657 122.296 436.071 121.223C437.486 120.126 438.656 118.797 439.583 117.237C440.534 115.676 441.192 113.896 441.558 111.896L457.578 111.969C457.164 115.408 456.128 118.724 454.469 121.918C452.836 125.088 450.629 127.929 447.849 130.441C445.094 132.928 441.802 134.903 437.973 136.366C434.169 137.805 429.865 138.524 425.062 138.524C418.38 138.524 412.406 137.012 407.139 133.989C401.896 130.965 397.751 126.588 394.703 120.858C391.679 115.127 390.168 108.19 390.168 100.045C390.168 91.8767 391.704 84.9271 394.776 79.1967C397.849 73.4664 402.018 69.1016 407.285 66.1023C412.552 63.0786 418.478 61.5668 425.062 61.5668C429.402 61.5668 433.426 62.1764 437.132 63.3956C440.863 64.6148 444.167 66.3949 447.044 68.7358C449.922 71.0523 452.263 73.8931 454.067 77.2582C455.896 80.6232 457.066 84.476 457.578 88.8164ZM484.225 62.5909V137.5H468.643V62.5909H484.225ZM522.091 138.597C516.409 138.597 511.496 137.39 507.35 134.976C503.229 132.538 500.047 129.148 497.804 124.808C495.56 120.443 494.439 115.383 494.439 109.629C494.439 103.825 495.56 98.7531 497.804 94.4126C500.047 90.0478 503.229 86.6584 507.35 84.2443C511.496 81.8059 516.409 80.5866 522.091 80.5866C527.772 80.5866 532.673 81.8059 536.794 84.2443C540.94 86.6584 544.134 90.0478 546.377 94.4126C548.621 98.7531 549.743 103.825 549.743 109.629C549.743 115.383 548.621 120.443 546.377 124.808C544.134 129.148 540.94 132.538 536.794 134.976C532.673 137.39 527.772 138.597 522.091 138.597ZM522.164 126.527C524.748 126.527 526.906 125.795 528.638 124.332C530.369 122.845 531.674 120.821 532.551 118.261C533.454 115.7 533.905 112.786 533.905 109.519C533.905 106.251 533.454 103.337 532.551 100.777C531.674 98.2166 530.369 96.1927 528.638 94.7053C526.906 93.2178 524.748 92.4741 522.164 92.4741C519.555 92.4741 517.36 93.2178 515.58 94.7053C513.824 96.1927 512.495 98.2166 511.593 100.777C510.715 103.337 510.276 106.251 510.276 109.519C510.276 112.786 510.715 115.7 511.593 118.261C512.495 120.821 513.824 122.845 515.58 124.332C517.36 125.795 519.555 126.527 522.164 126.527ZM595.902 113.579V81.3182H611.484V137.5H596.524V127.295H595.939C594.671 130.587 592.562 133.233 589.611 135.232C586.685 137.232 583.113 138.232 578.894 138.232C575.139 138.232 571.835 137.378 568.982 135.671C566.129 133.964 563.898 131.538 562.288 128.392C560.703 125.247 559.899 121.479 559.874 117.09V81.3182H575.456V114.31C575.48 117.627 576.37 120.248 578.126 122.174C579.882 124.101 582.235 125.064 585.185 125.064C587.063 125.064 588.819 124.637 590.452 123.784C592.086 122.906 593.403 121.614 594.403 119.907C595.427 118.2 595.927 116.09 595.902 113.579ZM644.65 138.414C640.383 138.414 636.518 137.317 633.055 135.123C629.617 132.904 626.886 129.648 624.862 125.357C622.862 121.04 621.863 115.749 621.863 109.482C621.863 103.045 622.899 97.6924 624.972 93.4251C627.044 89.1334 629.8 85.9268 633.238 83.8054C636.701 81.6596 640.492 80.5866 644.613 80.5866C647.759 80.5866 650.38 81.1231 652.477 82.196C654.599 83.2446 656.306 84.5613 657.598 86.1463C658.915 87.7069 659.915 89.2431 660.597 90.755H661.073V62.5909H676.618V137.5H661.256V128.502H660.597C659.866 130.063 658.83 131.611 657.488 133.147C656.172 134.659 654.453 135.915 652.331 136.915C650.234 137.915 647.674 138.414 644.65 138.414ZM649.588 126.015C652.099 126.015 654.221 125.332 655.952 123.967C657.708 122.577 659.049 120.638 659.976 118.151C660.927 115.664 661.402 112.75 661.402 109.409C661.402 106.068 660.939 103.167 660.012 100.704C659.086 98.241 657.744 96.339 655.989 94.9979C654.233 93.6567 652.099 92.9861 649.588 92.9861C647.027 92.9861 644.869 93.6811 643.114 95.071C641.358 96.4609 640.029 98.3873 639.127 100.85C638.225 103.313 637.774 106.166 637.774 109.409C637.774 112.677 638.225 115.566 639.127 118.078C640.053 120.565 641.382 122.516 643.114 123.93C644.869 125.32 647.027 126.015 649.588 126.015ZM713.56 137.5V62.5909H743.114C748.796 62.5909 753.636 63.676 757.635 65.8462C761.634 67.9921 764.682 70.9792 766.78 74.8075C768.901 78.6115 769.962 83.0007 769.962 87.9751C769.962 92.9496 768.889 97.3388 766.743 101.143C764.597 104.947 761.488 107.909 757.416 110.031C753.368 112.152 748.467 113.213 742.712 113.213H723.875V100.521H740.152C743.2 100.521 745.711 99.9967 747.687 98.9482C749.686 97.8752 751.174 96.4 752.149 94.5224C753.149 92.6204 753.649 90.438 753.649 87.9751C753.649 85.4879 753.149 83.3177 752.149 81.4645C751.174 79.5869 749.686 78.136 747.687 77.1119C745.687 76.0633 743.151 75.5391 740.079 75.5391H729.398V137.5H713.56ZM846.343 88.8164H830.322C830.03 86.7437 829.432 84.9027 828.53 83.2933C827.628 81.6596 826.47 80.2696 825.055 79.1236C823.641 77.9775 822.007 77.0997 820.154 76.4901C818.325 75.8804 816.338 75.5756 814.192 75.5756C810.315 75.5756 806.938 76.5388 804.06 78.4652C801.183 80.3672 798.952 83.147 797.367 86.8047C795.782 90.438 794.989 94.8516 794.989 100.045C794.989 105.386 795.782 109.872 797.367 113.506C798.976 117.139 801.22 119.882 804.097 121.735C806.974 123.589 810.303 124.515 814.082 124.515C816.204 124.515 818.167 124.235 819.971 123.674C821.8 123.113 823.422 122.296 824.836 121.223C826.25 120.126 827.421 118.797 828.347 117.237C829.298 115.676 829.957 113.896 830.322 111.896L846.343 111.969C845.929 115.408 844.892 118.724 843.234 121.918C841.6 125.088 839.393 127.929 836.614 130.441C833.858 132.928 830.566 134.903 826.738 136.366C822.934 137.805 818.63 138.524 813.826 138.524C807.145 138.524 801.171 137.012 795.904 133.989C790.661 130.965 786.516 126.588 783.468 120.858C780.444 115.127 778.932 108.19 778.932 100.045C778.932 91.8767 780.468 84.9271 783.541 79.1967C786.613 73.4664 790.783 69.1016 796.05 66.1023C801.317 63.0786 807.243 61.5668 813.826 61.5668C818.167 61.5668 822.19 62.1764 825.897 63.3956C829.627 64.6148 832.932 66.3949 835.809 68.7358C838.686 71.0523 841.027 73.8931 842.832 77.2582C844.661 80.6232 845.831 84.476 846.343 88.8164Z" fill="white"/>
</svg>
